<?xml version="1.0" encoding="UTF-8"?>
<svg id="Layer_1" xmlns="http://www.w3.org/2000/svg" version="1.1" viewBox="0 0 637 257">
  <defs>
    <style>
      .st0 {
        fill: #fff;
      }

      .st1 {
        fill: #d5d4d6;
      }
    </style>
  </defs>
  <g>
    <path class="st0" d="M488.2,164.1c.8.4,1.6.7,2.4,1.1,2.2,1,4.4,1.8,6.7,2.6,8.5,3.1,16.2,4.6,22.9,4.6,5.2-6.2,9.6-13.5,12.9-21.6.8-2.2,1.6-4.3,2.2-6.4.3-.8.5-1.7.7-2.5-14.8,7.6-30.8,15-47.7,22.3ZM333.9,218.7c5,2.4,10.7,3.6,17.4,3.6,10.4,0,18.7-3.3,25.2-10.2,1.9-2.1,3.6-4.5,4.9-7.1.4-.8.8-1.6,1.1-2.4-16.7,5.2-33.8,10.1-51.2,14.7.8.5,1.7,1,2.6,1.4ZM105,132.5c-.2.8-.3,1.6-.4,2.4,3.3-1.7,6.6-3.3,10-4.9,0-.7,0-1.5,0-2.2.3-5.5,1.3-11.7,3-18.5l-5.8-1.7c-3,8.6-5.3,17-6.8,24.9Z"/>
    <path class="st0" d="M526.2,90.4h-6.2l-14.1,27.7c6.9,5.8,13.5,11.6,20,17.5-9.8-1-23.3-5.4-35.1-11.4v-17h-6.2l-2.3,9.6c-3.1,13.3-8.7,18.3-19.3,18.3s-20-4-31.4-10.6l.4-.8,3.7-9.4-5.4-2.9-4,6.9c-6.7,11.9-13.7,14.8-34.1,14.8h0s0,0,0,0h-27.7c5.8-8.5,9.6-17.7,9.6-26,0-12.3-7.5-27.7-18.9-39.3h-6.2c-13.5,21.6-26,44.9-32.7,65.1-4.8.2-10,.2-15.4.2-19.3,0-24.1-2.9-24.1-21v-13.1h-6.2l-7.5,30.2c-6,2.7-13.5,4-22.5,4s-14.1-1-16.9-2.9c-2.9-1.9-4.4-5.4-4.4-11V17.2h-6.2l-20.2,31.4,2.6,45.2v2c.1,0,3.4,58.2,3.4,58.2-12.3,6.4-29.3,9.6-46.8,9.6-25.6,0-37.4-11-37.4-32s0-1,0-1.6c-3.4,1.6-6.7,3.3-10,4.9-1.1,6.5-1.7,12.7-1.7,18.7,0,30.4,14.1,51.6,47,51.6,19.3.4,41.2-7.7,53.9-19.5,2.7-8.5,4.6-18.7,6-27.9,4.8,9.8,12.9,14.6,24.3,14.6s8.3-.6,12-1.7c3.7-1.1,7.1-2.9,10.3-5.1l5-24.1h.6c2.3,20.6,13.1,31,32.5,31s10.6-.8,16.2-2.3c1.3,23.8,8,39.8,20.6,47.3,17.4-4.6,34.5-9.6,51.2-14.7,2.2-5.2,3.3-11.2,3.3-17.9s-.6-8.5-1.9-12.5c.6.2,1.2.2,1.9.2,6.1,0,11.2-.7,15.7-2.8,4.5-2.1,8.5-5.4,12.6-10.7,11,8.3,25.6,15.6,38.1,15.6s14.8-3.7,19.6-14.8l1.9-4.4c4.6,3.4,9.5,6.4,14.6,8.8,17-7.2,32.9-14.7,47.7-22.3,1.3-4.8,1.9-9.3,1.9-13.6,0-10.8-4.8-26-11.6-37.9ZM335.9,107.4c18.5,5.2,27.7,10.8,27.7,15s-15,8.9-41,10c3.5-9.2,8.3-17.7,13.3-25ZM357.5,182.7c-20.6,0-34.9-5.6-39.7-14.8,2.5-1,5-2.1,7.5-3.1,33.3.6,52.2,4.2,52.2,10.6s-8.1,7.3-20,7.3Z"/>
  </g>
  <polygon class="st0" points="265.4 216.2 281.2 200.4 263.3 182.7 245.6 200.4 261.4 216.2 245.6 232 263.3 249.9 281.2 232 265.4 216.2"/>
  <path class="st1" d="M631.9,55.8c-3.2-21.7-38.9-33.3-100.6-32.6-61.3.7-141,13.3-224.5,35.5-30.3,8-59.7,17-87.7,26.6v2.1c28-9.7,57.6-18.7,88-26.7,77-20.5,150.8-32.8,209.9-35.1,4.9-.2,9.7-.3,14.4-.4,60-.7,96.1,10.6,99.1,31,3,20.4-27.1,49.3-82.7,79.4-3.9,2.1-7.8,4.2-11.9,6.2-14.8,7.6-30.8,15-47.7,22.3-32.2,13.7-67.9,26.8-105.7,38.5-16.7,5.2-33.8,10.1-51.2,14.7-.3,0-.6.2-.8.2-83.4,22.2-163,34.8-224.2,35.5-60,.7-96.1-10.6-99.1-31-3-20.4,27.1-49.3,82.7-79.4,4.8-2.6,9.7-5.2,14.8-7.7,3.3-1.7,6.6-3.3,10-4.9,24.4-11.8,51.7-23.3,80.9-34.1v-2c-29.3,10.8-56.4,22.2-80.8,34-3.3,1.6-6.5,3.2-9.7,4.8-5.4,2.7-10.7,5.5-15.7,8.2C32.2,171.6,2.5,200.6,5.7,222.4c3.2,21.7,39,33.3,100.6,32.6,4.7,0,9.5-.2,14.4-.4,59.1-2.3,133-14.6,210.1-35.1,1-.3,2.1-.6,3.1-.8,16.1-4.3,31.9-8.9,47.5-13.7,39.1-12.1,76.1-25.6,109.3-39.8,15.8-6.8,30.7-13.8,44.6-20.8,4.5-2.3,8.8-4.6,13.1-6.9,57.1-30.9,86.8-59.9,83.6-81.6Z"/>
  <path class="st0" d="M582,2l1.2,15.7c.4,4.9,4.2,8.7,9.1,9.1l15.7,1.2-15.7,1.2c-4.9.4-8.7,4.2-9.1,9.1l-1.2,15.7-1.2-15.7c-.4-4.9-4.2-8.7-9.1-9.1l-15.7-1.2,15.7-1.2c4.9-.4,8.7-4.2,9.1-9.1l1.2-15.7Z"/>
</svg>
